<svg width="159" height="37" viewBox="0 0 159 37" fill="none" xmlns="http://www.w3.org/2000/svg">
<mask id="path-1-inside-1_126_1114" fill="white">
<path d="M0 0H159V37H0V0Z"/>
</mask>
<path d="M159 36H0V38H159V36Z" fill="#2F2F37" mask="url(#path-1-inside-1_126_1114)"/>
<path d="M4.428 25L0.09 12.04H1.755L5.526 23.299L9.333 12.04H10.998L6.66 25H4.428ZM12.5318 25V12.04H14.1338V25H12.5318ZM16.8342 25V12.04H25.0242V13.561H18.4362V17.62H23.9442V19.141H18.4362V23.479H25.0242V25H16.8342ZM29.9507 25L26.1977 12.04H27.8717L30.7517 22.291L33.6227 12.049L35.3057 12.04L38.1857 22.291L41.0567 12.04H42.7397L38.9867 25H37.3847L34.4687 14.839L31.5527 25H29.9507ZM47.8772 25V12.04H52.9982C53.1242 12.04 53.2742 12.046 53.4482 12.058C53.6222 12.064 53.7902 12.082 53.9522 12.112C54.6542 12.22 55.2422 12.46 55.7162 12.832C56.1962 13.204 56.5562 13.675 56.7962 14.245C57.0362 14.809 57.1562 15.436 57.1562 16.126C57.1562 16.81 57.0332 17.437 56.7872 18.007C56.5472 18.571 56.1872 19.042 55.7072 19.42C55.2332 19.792 54.6482 20.032 53.9522 20.14C53.7902 20.164 53.6222 20.182 53.4482 20.194C53.2742 20.206 53.1242 20.212 52.9982 20.212H49.4792V25H47.8772ZM49.4792 18.691H52.9442C53.0582 18.691 53.1872 18.685 53.3312 18.673C53.4812 18.661 53.6222 18.64 53.7542 18.61C54.1682 18.514 54.5042 18.34 54.7622 18.088C55.0262 17.83 55.2182 17.53 55.3382 17.188C55.4582 16.84 55.5182 16.486 55.5182 16.126C55.5182 15.766 55.4582 15.415 55.3382 15.073C55.2182 14.725 55.0262 14.422 54.7622 14.164C54.5042 13.906 54.1682 13.732 53.7542 13.642C53.6222 13.606 53.4812 13.585 53.3312 13.579C53.1872 13.567 53.0582 13.561 52.9442 13.561H49.4792V18.691ZM58.9514 25V12.04H64.0724C64.1984 12.04 64.3484 12.046 64.5224 12.058C64.6964 12.064 64.8644 12.082 65.0264 12.112C65.7284 12.22 66.3164 12.46 66.7904 12.832C67.2704 13.204 67.6304 13.675 67.8704 14.245C68.1104 14.809 68.2304 15.436 68.2304 16.126C68.2304 17.128 67.9694 17.998 67.4474 18.736C66.9254 19.468 66.1604 19.927 65.1524 20.113L64.5404 20.212H60.5534V25H58.9514ZM66.6644 25L64.1084 19.726L65.6924 19.24L68.5004 25H66.6644ZM60.5534 18.691H64.0184C64.1324 18.691 64.2614 18.685 64.4054 18.673C64.5554 18.661 64.6964 18.64 64.8284 18.61C65.2424 18.514 65.5784 18.34 65.8364 18.088C66.1004 17.83 66.2924 17.53 66.4124 17.188C66.5324 16.84 66.5924 16.486 66.5924 16.126C66.5924 15.766 66.5324 15.415 66.4124 15.073C66.2924 14.725 66.1004 14.422 65.8364 14.164C65.5784 13.906 65.2424 13.732 64.8284 13.642C64.6964 13.606 64.5554 13.585 64.4054 13.579C64.2614 13.567 64.1324 13.561 64.0184 13.561H60.5534V18.691ZM75.8107 25.27C74.5207 25.27 73.4257 24.985 72.5257 24.415C71.6257 23.845 70.9387 23.053 70.4647 22.039C69.9967 21.025 69.7627 19.852 69.7627 18.52C69.7627 17.188 69.9967 16.015 70.4647 15.001C70.9387 13.987 71.6257 13.195 72.5257 12.625C73.4257 12.055 74.5207 11.77 75.8107 11.77C77.1067 11.77 78.2047 12.055 79.1047 12.625C80.0047 13.195 80.6887 13.987 81.1567 15.001C81.6247 16.015 81.8587 17.188 81.8587 18.52C81.8587 19.852 81.6247 21.025 81.1567 22.039C80.6887 23.053 80.0047 23.845 79.1047 24.415C78.2047 24.985 77.1067 25.27 75.8107 25.27ZM75.8107 23.74C76.7767 23.746 77.5807 23.53 78.2227 23.092C78.8707 22.648 79.3537 22.033 79.6717 21.247C79.9957 20.461 80.1577 19.552 80.1577 18.52C80.1577 17.482 79.9957 16.573 79.6717 15.793C79.3537 15.013 78.8707 14.404 78.2227 13.966C77.5807 13.528 76.7767 13.306 75.8107 13.3C74.8447 13.294 74.0407 13.51 73.3987 13.948C72.7627 14.386 72.2827 14.998 71.9587 15.784C71.6347 16.57 71.4697 17.482 71.4637 18.52C71.4577 19.552 71.6167 20.458 71.9407 21.238C72.2647 22.018 72.7477 22.63 73.3897 23.074C74.0377 23.512 74.8447 23.734 75.8107 23.74ZM86.0063 25.261C85.1003 25.261 84.3323 25.015 83.7023 24.523C83.0723 24.031 82.6403 23.371 82.4062 22.543L83.9993 22.165C84.0953 22.603 84.3263 22.975 84.6923 23.281C85.0643 23.587 85.4903 23.74 85.9703 23.74C86.2823 23.74 86.6003 23.665 86.9243 23.515C87.2483 23.359 87.4973 23.107 87.6713 22.759C87.7913 22.519 87.8603 22.255 87.8783 21.967C87.8963 21.673 87.9053 21.328 87.9053 20.932V12.04H89.5253V20.932C89.5253 21.304 89.5223 21.637 89.5163 21.931C89.5163 22.225 89.4863 22.507 89.4263 22.777C89.3723 23.041 89.2643 23.311 89.1023 23.587C88.7783 24.157 88.3433 24.58 87.7973 24.856C87.2573 25.126 86.6603 25.261 86.0063 25.261ZM92.2268 25V12.04H100.417V13.561H93.8288V17.62H99.3368V19.141H93.8288V23.479H100.417V25H92.2268ZM107.451 25.27C106.161 25.27 105.066 24.985 104.166 24.415C103.266 23.845 102.579 23.053 102.105 22.039C101.637 21.025 101.403 19.852 101.403 18.52C101.403 17.188 101.637 16.015 102.105 15.001C102.579 13.987 103.266 13.195 104.166 12.625C105.066 12.055 106.161 11.77 107.451 11.77C108.951 11.77 110.184 12.151 111.15 12.913C112.122 13.675 112.791 14.701 113.157 15.991L111.528 16.423C111.264 15.457 110.793 14.695 110.115 14.137C109.437 13.579 108.549 13.3 107.451 13.3C106.485 13.3 105.681 13.519 105.039 13.957C104.397 14.395 103.914 15.007 103.59 15.793C103.266 16.573 103.101 17.482 103.095 18.52C103.089 19.552 103.248 20.461 103.572 21.247C103.896 22.027 104.382 22.639 105.03 23.083C105.678 23.521 106.485 23.74 107.451 23.74C108.549 23.74 109.437 23.461 110.115 22.903C110.793 22.339 111.264 21.577 111.528 20.617L113.157 21.049C112.791 22.333 112.122 23.359 111.15 24.127C110.184 24.889 108.951 25.27 107.451 25.27ZM118.47 25V13.561H114.051V12.04H124.491V13.561H120.072V25H118.47Z" fill="#F2F2F3"/>
<path fill-rule="evenodd" clip-rule="evenodd" d="M143.25 9.75L154.5 9.75C154.699 9.75 154.89 9.82902 155.03 9.96967C155.171 10.1103 155.25 10.3011 155.25 10.5V21.75C155.25 22.1642 154.914 22.5 154.5 22.5C154.086 22.5 153.75 22.1642 153.75 21.75V12.3107L140.03 26.0303C139.737 26.3232 139.263 26.3232 138.97 26.0303C138.677 25.7374 138.677 25.2626 138.97 24.9697L152.689 11.25L143.25 11.25C142.836 11.25 142.5 10.9142 142.5 10.5C142.5 10.0858 142.836 9.75 143.25 9.75Z" fill="white"/>
</svg>
